<?xml version="1.0" encoding="UTF-8"?>
<svg id="_图层_1" data-name="图层 1" xmlns="http://www.w3.org/2000/svg" viewBox="0 0 705.18 893.2">
  <defs>
    <style>
      .cls-1 {
        fill: #ffad62;
      }

      .cls-2, .cls-3, .cls-4, .cls-5, .cls-6, .cls-7, .cls-8, .cls-9 {
        fill: none;
        stroke: #000;
        stroke-miterlimit: 10;
      }

      .cls-2, .cls-4, .cls-5, .cls-6, .cls-7, .cls-8, .cls-9 {
        stroke-width: 4px;
      }

      .cls-10 {
        fill: #78aed3;
      }

      .cls-11 {
        fill: #ffab5e;
      }

      .cls-3 {
        stroke-width: 6px;
      }

      .cls-12 {
        fill: #ffaa5b;
      }

      .cls-4 {
        stroke-dasharray: 0 0 12.57 12.57;
      }

      .cls-5 {
        stroke-dasharray: 0 0 13.17 13.17;
      }

      .cls-13 {
        fill: #88ca88;
      }

      .cls-14 {
        fill: #df5455;
      }

      .cls-15 {
        fill: #6dbf6d;
      }

      .cls-16 {
        fill: #4fb24f;
      }

      .cls-6 {
        stroke-dasharray: 0 0 11.29 11.29;
      }

      .cls-17 {
        fill: #e15d5d;
      }

      .cls-7 {
        stroke-dasharray: 0 0 11.03 11.03;
      }

      .cls-8 {
        stroke-dasharray: 0 0 11.94 11.94;
      }

      .cls-9 {
        stroke-dasharray: 0 0 11.61 11.61;
      }
    </style>
  </defs>
  <g>
    <line class="cls-3" x1="21.82" y1="409.56" x2="21.82" y2="872.85"/>
    <path d="M21.82,411.49c5.02,5.02,14.93,7.41,21.82,7.6-9.24-6.88-17.3-15.81-21.82-26.62-4.33,10.81-12.87,19.35-21.82,26.63,7.37-.59,16.31-2.39,21.82-7.6Z"/>
  </g>
  <g>
    <line class="cls-3" x1="22.73" y1="873.63" x2="586.3" y2="871.35"/>
    <path d="M584.37,871.36c-5.04-5-7.47-14.9-7.69-21.78,6.91,9.21,15.88,17.23,26.71,21.71-10.79,4.37-19.3,12.95-26.54,21.92,.56-7.37,2.32-16.32,7.51-21.85Z"/>
  </g>
  <ellipse class="cls-15" cx="96.33" cy="551.02" rx="29.08" ry="26.69"/>
  <ellipse class="cls-16" cx="207.19" cy="566.72" rx="29.08" ry="26.69"/>
  <ellipse class="cls-13" cx="170.84" cy="635.8" rx="29.08" ry="26.69"/>
  <ellipse class="cls-17" cx="316.24" cy="671.9" rx="29.08" ry="26.69"/>
  <ellipse class="cls-1" cx="378.94" cy="813.98" rx="29.08" ry="26.69"/>
  <ellipse class="cls-11" cx="317.15" cy="737.05" rx="29.08" ry="26.69"/>
  <ellipse class="cls-12" cx="451.64" cy="776.3" rx="29.08" ry="26.69"/>
  <ellipse class="cls-10" cx="199.01" cy="710.37" rx="29.08" ry="26.69"/>
  <ellipse class="cls-14" cx="198.11" cy="800.63" rx="29.08" ry="26.69"/>
  <ellipse class="cls-10" cx="130.86" cy="740.98" rx="29.08" ry="26.69"/>
  <g>
    <path class="cls-2" d="M518.67,683.9l-3.42-4.93c-2.04,.11-4.04,.21-5.99,.32"/>
    <path class="cls-7" d="M498.24,679.87c-32.98,1.74-50.86,2.69-60.56,3.2"/>
    <path class="cls-2" d="M432.18,683.36l-5.99,.32-3.36,4.97"/>
    <polyline class="cls-9" points="416.34 698.27 375.3 759.03 302.07 798.91"/>
    <polyline class="cls-2" points="296.97 801.69 291.7 804.56 294.22 810"/>
    <line class="cls-5" x1="299.76" y1="821.95" x2="319.13" y2="863.78"/>
    <polyline class="cls-2" points="321.9 869.76 324.42 875.2 330.32 874.15"/>
    <polyline class="cls-4" points="342.7 871.96 457.09 851.65 530.98 824.5"/>
    <polyline class="cls-2" points="536.88 822.33 542.51 820.26 544.9 814.75"/>
    <line class="cls-6" x1="549.39" y1="804.4" x2="565.13" y2="768.14"/>
    <polyline class="cls-2" points="567.38 762.97 569.77 757.46 566.35 752.53"/>
    <line class="cls-8" x1="559.54" y1="742.73" x2="522.08" y2="688.8"/>
  </g>
</svg>