<?xml version="1.0" encoding="UTF-8"?>
<svg id="_图层_1" data-name="图层 1" xmlns="http://www.w3.org/2000/svg" viewBox="0 0 1015.5 924.5">
  <defs>
    <style>
      .cls-1 {
        stroke: #444500;
      }

      .cls-1, .cls-2, .cls-3, .cls-4, .cls-5 {
        stroke-miterlimit: 10;
        stroke-width: 6px;
      }

      .cls-1, .cls-3 {
        fill: none;
      }

      .cls-2 {
        fill: #e6ff99;
      }

      .cls-2, .cls-3, .cls-4, .cls-5 {
        stroke: #000;
      }

      .cls-4 {
        fill: #e1ff85;
      }

      .cls-5, .cls-6 {
        fill: #fcc062;
      }
    </style>
  </defs>
  <g>
    <line class="cls-3" x1="534.06" y1="723.17" x2="372.67" y2="897.9"/>
    <path d="M348.1,924.5c6.92-16.81,13.34-39.66,13.83-57.03l13.96,26.94,27.96,11.78c-17.28,1.87-39.55,10.09-55.75,18.32Z"/>
  </g>
  <g>
    <line class="cls-3" x1="537.21" y1="364.36" x2="537.21" y2="730.69"/>
    <polygon points="537.21 322 512.82 381.7 537.21 367.53 561.6 381.7 537.21 322"/>
  </g>
  <g>
    <line class="cls-3" x1="979.29" y1="732.12" x2="542.73" y2="732.12"/>
    <path d="M1015.5,732.12c-17.04-6.32-38.18-17.11-51.28-28.54l10.32,28.54-10.32,28.53c13.1-11.43,34.25-22.21,51.28-28.53Z"/>
  </g>
  <path class="cls-4" d="M822.45,538.24c7.27,33.2-75.68,89.53-159.95,96.94-84.43,7.42-177.97-33.57-177.29-67.86,.71-35.5,102.44-64.06,177.29-67.86,57-2.89,152.74,5.83,159.95,38.77Z"/>
  <path class="cls-2" d="M853.97,772.38c0,42.83-101.25,77.55-226.14,77.55s-193.27-48.11-226.14-77.55c-111.74-100.05-145.58-203.95,226.14-77.55,117.54,39.97,226.14,34.72,226.14,77.55Z"/>
  <g>
    <path class="cls-6" d="M638.32,549.34c15.4,12.74,18.6,33.12,7.14,45.53-11.46,12.39-33.22,12.12-48.62-.61-15.4-12.74-18.6-33.12-7.14-45.53,11.46-12.39,33.22-12.12,48.62,.61Z"/>
    <path class="cls-1" d="M638.32,549.34c15.4,12.74,18.6,33.12,7.14,45.53-11.46,12.39-33.22,12.12-48.62-.61-15.4-12.74-18.6-33.12-7.14-45.53,11.46-12.39,33.22-12.12,48.62,.61Z"/>
  </g>
  <ellipse class="cls-5" cx="529.33" cy="748.52" rx="88.25" ry="35.79"/>
</svg>