<?xml version="1.0" encoding="UTF-8"?>
<svg id="_图层_1" data-name="图层 1" xmlns="http://www.w3.org/2000/svg" viewBox="0 0 722.57 542.18">
  <defs>
    <style>
      .cls-1 {
        fill: #d94a33;
      }

      .cls-2 {
        fill: #28909e;
      }

      .cls-3 {
        fill: #a4d7db;
      }

      .cls-4 {
        fill: none;
        stroke: #000;
        stroke-miterlimit: 10;
        stroke-width: 6px;
      }

      .cls-5 {
        fill: #a0bcbf;
      }

      .cls-6 {
        fill: #cd6179;
      }

      .cls-7 {
        fill: #e37766;
      }

      .cls-8 {
        fill: #d01d00;
      }

      .cls-9 {
        fill: #680f00;
      }

      .cls-10 {
        fill: #b8ce79;
      }

      .cls-11 {
        fill: #e08b9c;
      }

      .cls-12 {
        fill: #7a8847;
      }
    </style>
  </defs>
  <g>
    <path class="cls-5" d="M386.65,459c-2.74,0-5.55-.31-8.34-.93-24.51-5.43-50.78-34.52-68.56-75.93-19.51-45.44-25.76-98.17-17.15-144.66,10.81-58.39,44.25-104.28,91.74-125.91,16.61-7.56,34.12-11.56,50.66-11.56,15.53,0,29.94,3.55,41.66,10.25,12.96,7.42,18.29,19.62,23.93,32.54,6.18,14.15,12.57,28.79,29.17,39.39,9.83,6.27,20.07,9.32,31.31,9.32,16.09,0,31.08-6.2,45.57-12.2,12.11-5.01,23.56-9.75,33.74-9.75,6.13,0,11.42,1.73,16.14,5.3,25.94,19.55,30.9,88.69,22.4,146.89-8.21,56.18-26.81,96.1-48.54,104.18-2.58,.96-5.05,1.43-7.54,1.43-10.3,0-19.63-8.4-30.43-18.12-14.58-13.13-32.73-29.47-61.1-31.81-2.25-.19-4.5-.28-6.71-.28-36.14,0-60.95,24.86-82.83,46.8-17.98,18.02-34.97,35.05-55.12,35.05Z"/>
    <path d="M435.01,102.5c15.09,0,29.07,3.43,40.42,9.92,12.24,7.01,17.17,18.29,22.88,31.37,6.03,13.82,12.87,29.49,30.12,40.5,10.24,6.54,20.92,9.71,32.65,9.71,16.59,0,32.49-6.58,46.53-12.39,11.88-4.91,23.1-9.56,32.78-9.56,5.57,0,10.36,1.57,14.64,4.79,11.08,8.35,19.23,28.16,22.96,55.8,3.54,26.23,3,57.75-1.53,88.74-3.8,26.03-10.07,49.32-18.12,67.37-8.44,18.92-18.41,30.96-28.82,34.83-2.3,.86-4.48,1.27-6.67,1.27-9.34,0-18.34-8.1-28.75-17.48-14.86-13.38-33.35-30.03-62.56-32.44-2.31-.19-4.64-.29-6.92-.29-37.18,0-62.37,25.25-84.6,47.53-18.37,18.41-34.24,34.32-53.35,34.32-2.56,0-5.18-.29-7.8-.87-23.74-5.26-49.34-33.8-66.8-74.48-19.32-45-25.51-97.2-16.99-143.22,5.64-30.47,17.24-57.18,34.48-79.38,15.16-19.52,34.46-34.98,55.84-44.71,16.28-7.42,33.44-11.34,49.63-11.34h0m0-5c-16.64,0-34.42,3.92-51.7,11.79-41.95,19.11-80.9,61.51-93.16,127.73-19.08,103.05,36.04,212.06,87.62,223.49,3.05,.67,6,.99,8.88,.99,46.26,0,73.18-81.85,137.95-81.85,2.13,0,4.3,.09,6.51,.27,48.63,4.01,65.77,49.94,91.73,49.94,2.69,0,5.49-.5,8.42-1.58,54.99-20.44,74.98-219.08,26.78-255.41-5.53-4.17-11.42-5.8-17.65-5.8-22.79,0-49.97,21.94-79.31,21.94-9.77,0-19.79-2.44-29.96-8.93-31.33-19.99-25.3-56.03-53.2-71.99-12.32-7.05-27.09-10.59-42.9-10.58h0Z"/>
  </g>
  <g>
    <path class="cls-10" d="M53.71,325.23C43.98,329.6-1.66,350.1,.05,376.76c.92,14.28,15.09,24.94,41.88,45.09,19.11,14.37,28.28,16.81,34.03,29.63,7.32,16.33-.85,27.36,6.54,33.49,10,8.3,36.53-2.28,52.35-18.04,16.33-16.26,29.38-46.14,18.32-65.7-12.16-21.5-41.77-9.83-58.9-34.78-12.78-18.61-6.35-39.74-19.63-45.09-3.21-1.29-8.13-1.89-20.94,3.86Z"/>
    <path class="cls-12" d="M78.64,381.97c-3.84,13.49-4.17,18.79-25.5,18.04-14.08-.5-25.5-8.07-25.5-18.04s11.73-20.8,25.82-20.8c25.52,0,27.92,11.22,25.19,20.8Z"/>
    <ellipse class="cls-12" cx="140.23" cy="435.69" rx="12.19" ry="7.31" transform="translate(-263.02 219.17) rotate(-43.93)"/>
  </g>
  <g>
    <path class="cls-3" d="M21.89,177.82c-9.51-12.12-6.18-33.54,4.38-46.23,18.56-22.3,59.9-18.12,85.33-6.3,22.81,10.6,50.09,35.39,43.76,54.63-5.55,16.85-34.54,22.32-48.13,23.11-7.43,.43-23.29-3.91-54.7-12.61-22.65-6.27-26.95-7.92-30.63-12.61Z"/>
    <path class="cls-2" d="M114.41,163.62c0,11.89-36.19,13.43-48.57,13.43s-22.42-9.64-22.42-21.53,23.11-26.73,35.5-26.73,35.5,22.93,35.5,34.83Z"/>
  </g>
  <g>
    <path class="cls-11" d="M231.09,269.97c0,31.27-28.47,68.18-58.48,56.62-26.25-10.11-61.71-28.98-58.48-56.62,3.08-26.39,32.46-49.07,58.48-56.62,30.94-8.98,58.48,25.35,58.48,56.62Z"/>
    <ellipse class="cls-6" cx="205.54" cy="279.03" rx="28.04" ry="27.1"/>
  </g>
  <g>
    <line class="cls-4" x1="250.74" y1="42.36" x2="250.29" y2="513.22"/>
    <polygon points="250.78 0 226.33 59.67 250.74 45.53 275.11 59.72 250.78 0"/>
  </g>
  <g>
    <line class="cls-4" x1="686.36" y1="513.65" x2="249.8" y2="513.65"/>
    <path d="M722.57,513.65c-17.04-6.32-38.18-17.11-51.28-28.54l10.32,28.54-10.32,28.53c13.1-11.43,34.25-22.21,51.28-28.53Z"/>
  </g>
  <g>
    <circle class="cls-7" cx="403.28" cy="254.5" r="40.5"/>
    <path d="M403.28,216.5c20.95,0,38,17.05,38,38s-17.05,38-38,38-38-17.05-38-38,17.05-38,38-38m0-5c-23.75,0-43,19.25-43,43s19.25,43,43,43,43-19.25,43-43-19.25-43-43-43h0Z"/>
  </g>
  <g>
    <ellipse class="cls-8" cx="581.78" cy="253.5" rx="31" ry="23.5"/>
    <path d="M581.78,232.5c15.71,0,28.5,9.42,28.5,21s-12.79,21-28.5,21-28.5-9.42-28.5-21,12.79-21,28.5-21m0-5c-18.5,0-33.5,11.64-33.5,26s15,26,33.5,26,33.5-11.64,33.5-26-15-26-33.5-26h0Z"/>
  </g>
  <g>
    <circle class="cls-1" cx="452.28" cy="356.5" r="14.5"/>
    <path d="M452.28,344.5c6.62,0,12,5.38,12,12s-5.38,12-12,12-12-5.38-12-12,5.38-12,12-12m0-5c-9.39,0-17,7.61-17,17s7.61,17,17,17,17-7.61,17-17-7.61-17-17-17h0Z"/>
  </g>
  <g>
    <ellipse class="cls-7" cx="362.28" cy="366" rx="29.5" ry="24"/>
    <path d="M362.28,344.5c14.89,0,27,9.64,27,21.5s-12.11,21.5-27,21.5-27-9.64-27-21.5,12.11-21.5,27-21.5m0-5c-17.67,0-32,11.86-32,26.5s14.33,26.5,32,26.5,32-11.86,32-26.5-14.33-26.5-32-26.5h0Z"/>
  </g>
  <g>
    <path class="cls-9" d="M622.26,388.41c-4.28,0-8.7-2.04-12.12-5.58-2.94-3.05-4.75-6.82-5.08-10.6-.32-3.58,.74-6.74,2.97-8.89,1.87-1.8,4.38-2.75,7.28-2.75,4.28,0,8.7,2.04,12.12,5.58,2.94,3.05,4.75,6.82,5.08,10.6,.32,3.58-.74,6.74-2.97,8.89-1.87,1.8-4.38,2.75-7.28,2.75Z"/>
    <path d="M615.31,358.09v5c3.55,0,7.41,1.8,10.32,4.82,2.55,2.64,4.11,5.87,4.39,9.09,.25,2.81-.54,5.25-2.22,6.87-1.76,1.69-3.98,2.05-5.54,2.05-3.55,0-7.41-1.8-10.32-4.82-2.55-2.64-4.11-5.87-4.39-9.09-.25-2.81,.54-5.25,2.22-6.87,1.76-1.69,3.98-2.05,5.54-2.05v-5m0,0c-3.41,0-6.6,1.12-9.01,3.45-5.77,5.56-4.85,15.86,2.04,23.02,4.02,4.17,9.17,6.35,13.92,6.35,3.41,0,6.6-1.12,9.01-3.45,5.77-5.56,4.85-15.86-2.04-23.02-4.02-4.17-9.17-6.35-13.92-6.35h0Z"/>
  </g>
</svg>