<?xml version="1.0" encoding="UTF-8"?>
<svg id="_图层_2" data-name="图层 2" xmlns="http://www.w3.org/2000/svg" viewBox="0 0 200 200">
  <defs>
    <style>
      .cls-1 {
        opacity: 0;
      }

      .cls-2 {
        fill: #dddddd;
      }

      .cls-3 {
        stroke-width: 4.56px;
      }

      .cls-3, .cls-4 {
        fill: none;
        stroke: #dddddd;
        stroke-linecap: round;
        stroke-linejoin: round;
      }

      .cls-4 {
        stroke-width: 4px;
      }

      .cls-5 {
        fill: #00a99d;
      }
    </style>
  </defs>
  <g id="_斑马鱼" data-name="斑马鱼">
    <g>
      <g class="cls-1">
        <rect class="cls-5" width="200" height="200"/>
      </g>
      <ellipse class="cls-3" cx="23.21" cy="106.12" rx="7.5" ry="7.57" transform="translate(-1.73 .39) rotate(-.94)"/>
      <ellipse class="cls-2" cx="21.54" cy="104.12" rx="3.21" ry="3.25" transform="translate(-1.7 .37) rotate(-.94)"/>
      <path class="cls-3" d="M33.62,94.97s1.87,1.81,2.04,4.55c.09,1.46,.95,2.89,1.73,3.92,1.57,2.05,2.38,5.11,1.98,8.07-.15,1.13-.47,2.29-1.07,3.37-2.39,4.29-4.28,4.15-4.28,4.15"/>
      <path class="cls-4" d="M159.22,82.89s18.87,9.52,31.5-14.51"/>
      <path class="cls-4" d="M159.58,118.34s21.17,6.74,26.03,18.48"/>
      <path class="cls-3" d="M5.06,100.04c-.24-.42-.14-.95,.23-1.27,3.01-2.51,16.76-13.06,40.2-18.02,21.94-4.64,40.19-4.8,46.02-4.72,1.19,.02,2.29-.61,2.88-1.64,2.34-4.11,8.75-14.49,15.25-17.66,2.43-1.19,4.45-1.76,6.09-1.97,2.79-.37,5.56,.76,7.42,2.88,2.97,3.38,9.11,10.97,5.92,16.38-3.52,5.96-7.25,8.58-7.25,8.58,0,0,5.12,4.84,14.24,5.26,5.12,.24,9.13-.05,11.66-.34,2.09-.24,4.11-.91,5.93-1.96,2.31-1.33,5.91-3.65,10.42-7.37,8.12-6.7,15.23-12.65,15.23-12.65,0,0,7.76-7.35,14.31,4.4,3.38,6.06,.06,10.59-1.81,13.57-1.69,2.69-13.41,15.52-13.41,15.52,0,0-2.36,2.55,.31,7.19,1.61,2.8,4.75,9.13,6.99,13.7,2.3,4.71,2.9,10.8,1.3,16-.59,1.92-1.45,3.6-2.72,4.52-4.33,3.15-8.69-1.89-8.69-1.89l-8.13-10.52s-9.98-15.98-20.21-16.57c-10.23-.59-18.03,3.51-18.03,3.51,0,0-.81,.71-.17,1.99s3.6,5.12,1.4,10.04c-2.2,4.93-3.46,8.96-7.96,11.83-2.25,1.44-9.05,5.3-15.06,1.77s-9.98-12.4-9.98-12.4c0,0-.57-.97-2.31-.59s-22.21,3.55-22.21,3.55c0,0,1.79,10.77,1.14,12.89-1.07,3.48-7.48,4.71-9.57,2.39-3.59-3.99-6.24-8.84-7.03-10.63-.42-.94-1.14-1.72-2.08-2.14-.6-.26-1.37-.48-2.36-.56-3.12-.23-16.47-1.29-20.96-3.11-3.07-1.25-9.03-3.31-15.38-8.08-4.3-3.23-6.24-5.53-7.05-6.67-.4-.57-.8-1.13-1.22-1.65-.79-.99-2.04-2.78-2.77-4.98s.11-3.91,.74-4.7c.31-.38,.34-.92,.1-1.35l-1.41-2.54Z"/>
      <path class="cls-4" d="M42.37,94.82s26.84-13.88,84.51-2.25"/>
      <path class="cls-4" d="M48.62,104.67s12.4,4.54,76.87-5.72c0,0,24.26-3.16,58.76-8.04"/>
      <path class="cls-4" d="M45.23,118.31s5.03,3.3,49.9-5.61c40.64-8.06,52.99-13.33,73.57-2.53,12.17,6.39,16.65,9.05,16.65,9.05"/>
      <path class="cls-4" d="M101.25,78.86s5.98-12.71,15.18-16.44"/>
      <path class="cls-4" d="M114.19,80.88s4.57-10.55,8.59-11.39"/>
      <path class="cls-4" d="M104.91,128.83s7.46-7.18,19.76-7.23"/>
      <path class="cls-4" d="M109.95,135.04s7.94-4.91,12.34-4.98"/>
      <path class="cls-4" d="M63.37,131.57s3.58,3.21,3.63,6.3"/>
    </g>
  </g>
</svg>