<?xml version="1.0" standalone="no"?><!DOCTYPE svg PUBLIC "-//W3C//DTD SVG 1.1//EN" "http://www.w3.org/Graphics/SVG/1.1/DTD/svg11.dtd"><svg t="1676786613994" class="icon" viewBox="0 0 1024 1024" version="1.1" xmlns="http://www.w3.org/2000/svg" p-id="1872" xmlns:xlink="http://www.w3.org/1999/xlink" width="200" height="200"><path d="M588.906667 74.666667l15.210666 0.106666c4.8 0.064 9.344 0.170667 13.653334 0.32l12.309333 0.554667c23.424 1.365333 40.064 4.266667 57.6 9.557333a193.386667 193.386667 0 0 1 68.693333 36.757334c18.816 15.573333 33.28 32.106667 55.04 63.744l8.533334 12.586666 54.485333 81.770667 9.706667 14.72 7.722666 12.053333 4.266667 6.890667 3.626667 6.229333 3.2 5.76 2.858666 5.504 3.904 8.192c7.210667 15.872 11.925333 31.424 14.72 48.64l0.469334 2.986667 0.832 5.973333 0.682666 6.165334 0.533334 6.549333 0.405333 7.210667 0.426667 12.544 0.170666 15.338666 0.042667 148.906667c0 95.36-10.965333 149.226667-39.253333 202.090667a275.264 275.264 0 0 1-114.261334 114.282666c-52.864 28.266667-106.730667 39.232-202.090666 39.232h-116.672c-99.434667 0-152.896-10.730667-206.208-39.253333a275.264 275.264 0 0 1-114.282667-114.261333C106.730667 742.506667 96 689.066667 96 589.610667l0.021333-156.906667 0.106667-9.6 0.362667-18.346667c2.368-82.944 13.397333-129.194667 38.741333-176.576a275.264 275.264 0 0 1 114.282667-114.282666c47.381333-25.344 93.653333-36.373333 176.554666-38.741334l18.346667-0.362666 19.541333-0.128h124.949334z m6.549333 85.333333h-135.893333l-4.309334 0.021333-16.512 0.192-7.808 0.149334-14.784 0.490666-13.717333 0.682667c-4.416 0.256-8.661333 0.554667-12.757333 0.896l-11.861334 1.130667c-32.448 3.52-55.232 9.834667-76.736 19.904l-7.552 3.712-3.776 1.962666a189.952 189.952 0 0 0-81.237333 83.050667l-3.712 7.552c-10.666667 22.784-17.130667 46.954667-20.48 82.56l-1.024 12.309333-0.426667 6.485334-0.682666 13.717333a865.28 865.28 0 0 0-0.277334 7.253333l-0.362666 15.338667-0.192 16.512v164.48c0.042667 5.738667 0.128 11.264 0.234666 16.597333l0.490667 15.424c0.085333 2.474667 0.213333 4.906667 0.32 7.296l0.853333 13.802667c3.498667 46.592 11.946667 75.456 27.221334 104.064a189.952 189.952 0 0 0 79.274666 79.274667c28.608 15.296 57.472 23.722667 104.064 27.2l13.802667 0.853333c2.389333 0.128 4.821333 0.256 7.296 0.341333l15.424 0.490667 8.149333 0.149333 17.237334 0.106667h116.693333l17.002667-0.128c71.082667-1.109333 108.48-9.6 144.832-29.013333a189.952 189.952 0 0 0 79.274666-79.274667c19.413333-36.352 27.904-73.749333 29.013334-144.853333l0.128-17.002667v-136.746667l-0.106667-19.754666-0.213333-11.136-0.426667-8.789334-0.362667-4.928-0.725333-6.506666-0.597333-4.053334a103.210667 103.210667 0 0 0-9.088-29.013333l-1.813334-3.733333-2.069333-3.925334-2.432-4.309333-4.544-7.530667-8.362667-13.056-66.645333-100.053333-6.698667-9.770667-5.973333-8.469333a399.786667 399.786667 0 0 0-2.794667-3.797333l-5.184-6.826667-4.821333-5.888a139.008 139.008 0 0 0-13.333333-13.866667l-4.48-3.84a108.096 108.096 0 0 0-38.869334-20.8 140.864 140.864 0 0 0-5.696-1.6l-5.888-1.344c-6.016-1.258667-12.586667-2.154667-20.608-2.773333l-8.533333-0.554667a399.786667 399.786667 0 0 0-4.714667-0.213333l-10.389333-0.298667-11.84-0.128zM618.666667 554.666667a42.666667 42.666667 0 0 1 3.2 85.226666L618.666667 640H405.333333a42.666667 42.666667 0 0 1-3.2-85.226667L405.333333 554.666667h213.333334z m-85.333334-170.666667a42.666667 42.666667 0 0 1 3.2 85.226667L533.333333 469.333333h-128a42.666667 42.666667 0 0 1-3.2-85.226666L405.333333 384h128z" fill="#bfbfbf" p-id="1873"></path></svg>