<?xml version="1.0" encoding="UTF-8"?>
<svg id="_图层_2" data-name="图层 2" xmlns="http://www.w3.org/2000/svg" viewBox="0 0 200 200">
  <defs>
    <style>
      .cls-1 {
        opacity: 0;
      }

      .cls-2 {
        fill: none;
        stroke: #dddddd;
        stroke-linecap: round;
        stroke-linejoin: round;
        stroke-width: 4.56px;
      }

      .cls-3 {
        fill: #e5e5e5;
      }
    </style>
  </defs>
  <g id="_智人" data-name="智人">
    <g>
      <g class="cls-1">
        <rect class="cls-3" width="200" height="200"/>
      </g>
      <g>
        <path class="cls-2" d="M92.05,84.27c-2.36,0-4.34-1.85-4.48-4.24l-3.45-18.58c-.24-1.3-.32-2.65-.08-3.95,.5-2.68,1.99-5.06,4.18-6.68,1.19-.88,2.59-1.44,4.03-1.77l17.58-4.09c2.47-.9,5.21,.49,5.89,3.1,.59,2.27-.78,4.6-2.99,5.41l-15.04,5.5c-1.35,.5-2.22,1.82-2.14,3.26l.99,17.29c.14,2.48-1.75,4.6-4.23,4.74-.09,0-.18,0-.26,0Z"/>
        <path class="cls-2" d="M130.99,55.74l6.03,5c1.11,.92,2.69,1.01,3.89,.21l14.44-9.56c2.07-1.37,4.86-.8,6.23,1.27,.05,.07,.09,.15,.14,.22,1.19,2.04,.59,4.68-1.41,6l-14.32,12.33c-1,.87-2.13,1.61-3.37,2.06-2.57,.92-5.38,.83-7.87-.25-1.36-.59-2.54-1.51-3.56-2.59l-1.88-2"/>
        <path class="cls-2" d="M119.6,90.16l17.72,28.99s4.43,6.32,5.51,12.91c.95,5.82,4.17,26.98,4.91,31.83,.08,.54-.32,1.03-.86,1.06l-16.44,1.04-6.18-33.11-21.82-14.97s-11.51-6.13-7.72-31.46l25.41,4.81s8.86-27.03,10.1-32.08-3.67-9.79-3.67-9.79"/>
        <path class="cls-2" d="M94.37,87.69l-7.7,41.09c-.37,1.98-1.32,3.83-2.85,5.14-1.29,1.1-4.31,2.04-6.94,2.09-6.59,.14-19.23,.67-19.23,.67l-8.65,15.8,28.91,.67c2.23,.05,7.43-.51,10.23-1.84,3.76-1.79,8.8-6,12.1-12.24,5.08-9.62,8.25-17.02,8.25-17.02"/>
        <path class="cls-2" d="M130.44,165.99l16.1-.91s12.43-.38,13.02,8.67c0,0,.46,5.25-6.13,6.08s-13.89,1.18-13.89,1.18c0,0-6.53,.18-7.69-6.44-1.18-6.76-1.4-8.59-1.4-8.59Z"/>
        <path class="cls-2" d="M56.82,136.4l-8.38-4.12s-3.98-1.79-6.04,2.06c-1.78,3.32-6.84,12.08-8.19,14.4-.26,.45-.42,.96-.48,1.48-.19,1.87,0,5.96,5.37,5.96,5.78,0,9.77-4.5,11.4-6.74,.48-.65,.88-1.36,1.22-2.09l5.1-10.96Z"/>
        <rect class="cls-2" x="110.55" y="19.01" width="23.9" height="29.63" rx="11.56" ry="11.56" transform="translate(6.45 -17.98) rotate(8.62)"/>
      </g>
    </g>
  </g>
</svg>