<?xml version="1.0" encoding="UTF-8"?>
<svg id="_图层_2" data-name="图层 2" xmlns="http://www.w3.org/2000/svg" viewBox="0 0 200 200">
  <defs>
    <style>
      .cls-1 {
        opacity: 0;
      }

      .cls-2 {
        fill: #dddddd;
      }

      .cls-3 {
        stroke: #dddddd;
        stroke-linecap: round;
        stroke-linejoin: round;
        stroke-width: 4.56px;
      }

      .cls-3, .cls-4 {
        fill: none;
      }

      .cls-5 {
        fill: #e5e5e5;
      }
    </style>
  </defs>
  <g id="_猕猴" data-name="猕猴">
    <g>
      <g class="cls-1">
        <rect class="cls-5" width="200" height="200"/>
      </g>
      <g>
        <path class="cls-3" d="M158.26,105.37c0,16.4-.69,35.27-9.45,46.87-10.88,14.4-30.76,24.6-48.89,24.6s-36.33-10.69-47.21-25.34c-8.57-11.54-11.14-29.93-11.14-46.13,0-36.75,25.6-66.55,58.34-66.55s58.34,29.79,58.34,66.55Z"/>
        <path class="cls-3" d="M145.16,57.18c6.22-3.56,13.83-1.96,17,3.58,3.17,5.54,.7,12.92-5.51,16.48"/>
        <path class="cls-3" d="M54.84,57.18c-6.22-3.56-13.83-1.96-17,3.58-3.17,5.54-.7,12.92,5.51,16.48"/>
        <g>
          <path class="cls-3" d="M86.18,96.35c-.21-2.76-3.02-4.88-6.27-4.72s-5.71,2.52-5.5,5.29"/>
          <path class="cls-3" d="M92.14,135.68c1.79,2.92,3.28,5.01,7.33,5.01s6.84-2.51,7.33-5.01"/>
          <path class="cls-3" d="M125.39,96.77c0-2.77-2.64-5.01-5.9-5.01s-5.9,2.24-5.9,5.01"/>
          <g>
            <ellipse class="cls-2" cx="92.42" cy="115.92" rx="3.18" ry="3.44"/>
            <ellipse class="cls-2" cx="105.73" cy="115.92" rx="3.18" ry="3.44"/>
          </g>
        </g>
        <path class="cls-4" d="M104.29,110.64c2.64,3.66,6.2,6.32,10.25,7.46-2.64-3.66-6.2-6.32-10.25-7.46Z"/>
        <path class="cls-4" d="M94.22,111.07c-3.35,1.25-6.31,3.56-8.62,6.61,3.35-1.25,6.31-3.56,8.62-6.61Z"/>
        <path class="cls-4" d="M101.95,105.74c7.62,.76,14.22,5.73,18.1,12.92,10.18-.71,18.28-10.96,18.28-23.46s-8.71-23.51-19.42-23.51c-7.41,0-13.87,5.06-17.14,12.47,1.25,3.39,1.95,7.12,1.95,11.03s-.63,7.29-1.77,10.54Z"/>
        <path class="cls-4" d="M99.41,111.18c-3.82,6.39-9.87,10.82-16.81,11.74-1.34,3.19-2.1,6.8-2.1,10.62,0,12.96,8.71,23.51,19.42,23.51s19.42-10.54,19.42-23.51c0-3.78-.74-7.34-2.06-10.51-7.38-.59-13.85-5.14-17.87-11.85Z"/>
        <path class="cls-4" d="M96.91,105.87c-1.17-3.29-1.81-6.89-1.81-10.66s.7-7.65,1.95-11.03c-3.27-7.41-9.72-12.47-17.14-12.47-10.71,0-19.42,10.54-19.42,23.51s8.63,23.41,19.27,23.5c3.71-6.9,9.93-11.77,17.15-12.84Z"/>
        <path class="cls-2" d="M142.72,95.2c0-15.39-10.68-27.9-23.81-27.9-8.06,0-15.19,4.72-19.5,11.92-4.31-7.2-11.44-11.92-19.5-11.92-13.13,0-23.81,12.52-23.81,27.9,0,14.58,9.6,26.58,21.78,27.79-1.14,3.26-1.77,6.81-1.77,10.54,0,15.39,10.68,27.9,23.81,27.9s23.81-12.52,23.81-27.9c0-3.78-.65-7.38-1.81-10.66,11.72-1.74,20.81-13.48,20.81-27.67Zm-22.68,23.46c-.38,.03-.75,.04-1.14,.04-1.51,0-2.97-.22-4.38-.61,1.08,1.49,2,3.15,2.74,4.93,1.31,3.16,2.06,6.73,2.06,10.51,0,12.96-8.71,23.51-19.42,23.51s-19.42-10.54-19.42-23.51c0-3.82,.76-7.43,2.1-10.62,.8-1.91,1.81-3.68,3-5.25-1.8,.67-3.71,1.03-5.7,1.03-.05,0-.1,0-.15,0-10.64-.1-19.27-10.6-19.27-23.5s8.71-23.51,19.42-23.51c7.41,0,13.87,5.06,17.14,12.47l1.31,2.34c.46,.82,1.64,.82,2.11,0l1.31-2.34c3.27-7.41,9.72-12.47,17.14-12.47,10.71,0,19.42,10.54,19.42,23.51s-8.1,22.75-18.28,23.46Z"/>
      </g>
    </g>
  </g>
</svg>