<?xml version="1.0" encoding="UTF-8"?>
<svg id="_图层_2" data-name="图层 2" xmlns="http://www.w3.org/2000/svg" viewBox="0 0 200 200">
  <defs>
    <style>
      .cls-1 {
        opacity: 0;
      }

      .cls-2 {
        fill: #dddddd;
      }

      .cls-3 {
        fill: none;
        stroke: #dddddd;
        stroke-linecap: round;
        stroke-linejoin: round;
        stroke-width: 4.56px;
      }

      .cls-4 {
        fill: #e5e5e5;
      }
    </style>
  </defs>
  <g id="_家鼠" data-name="家鼠">
    <g>
      <g class="cls-1">
        <rect class="cls-4" width="200" height="200"/>
      </g>
      <g>
        <path class="cls-3" d="M148.43,102.45c-1.06-1.54-1.87-3.29-2.33-5.22-2.06-8.44,3.12-16.95,11.56-19.01,8.44-2.06,16.95,3.12,19.01,11.56,1.64,6.74-1.32,13.52-6.88,17.03"/>
        <path class="cls-3" d="M148.2,83.52c-5.9-5.64-11.33-10.47-16.41-14.84-8.58-7.38-19.37-13.72-30.18-17.07-22.74-7.04-60.01-11.46-73.96,27.72-13.5,37.94,20.26,54.47,38.18,60.2,4.38,1.4,8.91,2.25,13.5,2.33,18.64,.34,76.38,1.26,94.28-.11,21.45-1.65,1.65-27.23,1.65-27.23-.98-1.36-1.97-2.68-2.96-3.99l-2.59-3.48"/>
        <path class="cls-2" d="M158.76,117c1.37,0,2.48,1.11,2.48,2.48s-1.11,2.48-2.48,2.48-2.48-1.11-2.48-2.48,1.11-2.48,2.48-2.48m0-4.56c-3.88,0-7.04,3.16-7.04,7.04s3.16,7.04,7.04,7.04,7.04-3.16,7.04-7.04-3.16-7.04-7.04-7.04h0Z"/>
        <path class="cls-2" d="M177.27,128.76c.72,0,1.4,.2,1.97,.61,1.85,1.33,1.91,4.4,.13,6.86-1.22,1.7-2.99,2.66-4.58,2.66-.72,0-1.4-.2-1.97-.61-1.85-1.33-1.91-4.4-.13-6.86,1.22-1.7,2.99-2.66,4.58-2.66m0-4.56c-3.13,0-6.23,1.7-8.28,4.55-1.43,1.99-2.19,4.33-2.15,6.61,.05,2.73,1.26,5.14,3.32,6.62,1.33,.96,2.94,1.47,4.63,1.47,3.13,0,6.23-1.7,8.28-4.55,1.43-1.99,2.19-4.33,2.15-6.61-.05-2.73-1.26-5.14-3.32-6.62-1.33-.96-2.94-1.47-4.63-1.47h0Z"/>
        <path class="cls-3" d="M70.68,84.49c10.5,0,19.01,8.51,19.01,19.01s-8.51,19.01-19.01,19.01"/>
        <path class="cls-3" d="M70.68,122.52h27.38c9.48,0,17.17,8.15,17.17,18.2h0"/>
        <path class="cls-3" d="M32.07,118.68S0,131.42,27.62,142.02s59.79,8.7,59.79,8.7c0,0,25.87-3.73,21.49,11.73,0,0-1.39,5.83-21.62,4.16"/>
      </g>
    </g>
  </g>
</svg>